<svg width="1920" height="2827" viewBox="0 0 1920 2827" fill="none" xmlns="http://www.w3.org/2000/svg">
<rect width="1920" height="2827" fill="url(#paint0_linear_31877_36250)"/>
<path d="M1735 172C1746.5 173.5 1749 186.5 1749 195.5V195.5C1749 196.517 1750.65 197.113 1751.37 196.392C1755.15 192.59 1759.91 191.639 1764.5 192.5C1770.2 193.377 1773.59 199.251 1774.34 206.752C1774.47 208 1775.48 209 1776.74 209V209C1777.74 209 1778.62 208.348 1778.99 207.418C1783.29 196.698 1792.81 194.125 1798.5 195C1799.4 195.208 1800.23 195.475 1800.98 195.803C1808.96 199.28 1814.44 209 1823.14 209H1826V209C1826.42 209 1826.83 209.005 1827.25 209.002C1831.79 208.965 1833.5 212.51 1833.87 216.386C1834.26 220.334 1831.57 223.647 1827.62 224.03C1823.41 224.437 1816.89 224.346 1807.42 223H1703C1699.13 223 1696 219.866 1696 216C1696 212.134 1699.13 209 1703 209V209C1708.98 209 1713.22 202.786 1713.02 196.805C1713.01 196.373 1713 195.938 1713 195.5C1713 180.864 1725.06 172 1735 172Z" fill="#FCFCED"/>
<path d="M347.95 279C356.782 280.152 358.702 290.135 358.702 297.047V297.047C358.702 297.828 359.968 298.285 360.52 297.732C363.427 294.812 367.08 294.082 370.605 294.743C374.982 295.416 377.587 299.928 378.162 305.688C378.258 306.647 379.039 307.415 380.003 307.415V307.415C380.773 307.415 381.449 306.914 381.735 306.2C385.035 297.968 392.347 295.991 396.717 296.663V296.663C404.312 298.416 409.848 307.415 417.642 307.415H417.836V307.415C418.156 307.415 418.478 307.419 418.799 307.416C421.72 307.394 423.114 309.304 423.658 311.676C424.546 315.542 421.619 318.852 417.658 319.062C414.442 319.233 409.848 319.059 403.564 318.166H323.376C320.407 318.166 318 315.76 318 312.791C318 309.822 320.407 307.415 323.376 307.415V307.415C327.972 307.415 331.224 302.643 331.072 298.05C331.061 297.718 331.056 297.383 331.056 297.047C331.056 285.808 340.316 279 347.95 279Z" fill="#FCFCED"/>
<path d="M817.95 178C826.782 179.152 828.702 189.135 828.702 196.047V196.047C828.702 196.828 829.968 197.285 830.52 196.732C833.427 193.812 837.08 193.082 840.605 193.743C844.982 194.416 847.587 198.928 848.162 204.688C848.258 205.647 849.039 206.415 850.003 206.415V206.415C850.773 206.415 851.449 205.914 851.735 205.2C855.035 196.968 862.347 194.991 866.717 195.663V195.663C874.312 197.416 879.848 206.415 887.642 206.415H887.836V206.415C888.156 206.415 888.478 206.419 888.799 206.416C891.72 206.394 893.114 208.304 893.658 210.676C894.546 214.542 891.619 217.852 887.658 218.062C884.442 218.233 879.848 218.059 873.564 217.166H793.376C790.407 217.166 788 214.76 788 211.791C788 208.822 790.407 206.415 793.376 206.415V206.415C797.972 206.415 801.224 201.643 801.072 197.05C801.061 196.718 801.056 196.383 801.056 196.047C801.056 184.808 810.316 178 817.95 178Z" fill="#FCFCED"/>
<path d="M402.156 313C408.099 313.775 409.392 320.494 409.392 325.146V325.146C409.392 325.671 410.243 325.979 410.614 325.607C412.571 323.641 415.028 323.15 417.401 323.595C420.347 324.048 422.1 327.084 422.487 330.96C422.552 331.605 423.077 332.122 423.726 332.122V332.122C424.244 332.122 424.699 331.785 424.891 331.304C427.112 325.765 432.033 324.434 434.974 324.887V324.887C440.085 326.066 443.81 332.122 449.056 332.122H449.186V332.122C449.4 332.122 449.617 332.125 449.831 332.123C450.949 332.114 451.735 332.525 452.272 333.174C454.801 336.23 451.018 340.046 447.052 339.998C445.103 339.974 442.639 339.792 439.579 339.357H385.618C383.62 339.357 382 337.738 382 335.74C382 333.742 383.62 332.122 385.618 332.122V332.122C388.711 332.122 390.899 328.91 390.797 325.819C390.79 325.596 390.786 325.371 390.786 325.146C390.786 317.582 397.019 313 402.156 313Z" fill="#FCFCED"/>
<path d="M173.95 393C182.782 394.152 184.702 404.135 184.702 411.047V411.047C184.702 411.828 185.968 412.285 186.52 411.732C189.427 408.812 193.08 408.082 196.605 408.743C200.982 409.416 203.587 413.928 204.162 419.688C204.258 420.647 205.039 421.415 206.003 421.415V421.415C206.773 421.415 207.449 420.914 207.735 420.2C211.035 411.968 218.347 409.991 222.717 410.663V410.663C230.312 412.416 235.848 421.415 243.642 421.415H243.836V421.415C244.156 421.415 244.478 421.419 244.799 421.416C247.72 421.394 249.114 423.304 249.658 425.676C250.546 429.542 247.619 432.852 243.658 433.062C240.442 433.233 235.848 433.059 229.564 432.166H149.376C146.407 432.166 144 429.76 144 426.791C144 423.822 146.407 421.415 149.376 421.415V421.415C153.972 421.415 157.224 416.643 157.072 412.05C157.061 411.718 157.056 411.383 157.056 411.047C157.056 399.808 166.316 393 173.95 393Z" fill="#FCFCED"/>
<path d="M1295.95 113C1304.78 114.152 1306.7 124.135 1306.7 131.047V131.047C1306.7 131.828 1307.97 132.285 1308.52 131.732C1311.43 128.812 1315.08 128.082 1318.61 128.743C1322.98 129.416 1325.59 133.928 1326.16 139.688C1326.26 140.647 1327.04 141.415 1328 141.415V141.415C1328.77 141.415 1329.45 140.914 1329.74 140.2C1333.03 131.968 1340.35 129.991 1344.72 130.663V130.663C1352.31 132.416 1357.85 141.415 1365.64 141.415H1365.84V141.415C1366.16 141.415 1366.48 141.419 1366.8 141.416C1369.72 141.394 1371.11 143.304 1371.66 145.676C1372.55 149.542 1369.62 152.852 1365.66 153.062C1362.44 153.233 1357.85 153.059 1351.56 152.166H1271.38C1268.41 152.166 1266 149.76 1266 146.791C1266 143.822 1268.41 141.415 1271.38 141.415V141.415C1275.97 141.415 1279.22 136.643 1279.07 132.05C1279.06 131.718 1279.06 131.383 1279.06 131.047C1279.06 119.808 1288.32 113 1295.95 113Z" fill="#FCFCED"/>
<path d="M1215.16 366C1221.1 366.775 1222.39 373.494 1222.39 378.146V378.146C1222.39 378.671 1223.24 378.979 1223.61 378.607C1225.57 376.641 1228.03 376.15 1230.4 376.595C1233.35 377.048 1235.1 380.084 1235.49 383.96C1235.55 384.605 1236.08 385.122 1236.73 385.122V385.122C1237.24 385.122 1237.7 384.785 1237.89 384.304C1240.11 378.765 1245.03 377.434 1247.97 377.887V377.887C1253.08 379.066 1256.81 385.122 1262.06 385.122H1262.19V385.122C1262.4 385.122 1262.62 385.125 1262.83 385.123C1263.95 385.114 1264.73 385.525 1265.27 386.174C1267.8 389.23 1264.02 393.046 1260.05 392.998C1258.1 392.974 1255.64 392.792 1252.58 392.357H1198.62C1196.62 392.357 1195 390.738 1195 388.74C1195 386.742 1196.62 385.122 1198.62 385.122V385.122C1201.71 385.122 1203.9 381.91 1203.8 378.819C1203.79 378.596 1203.79 378.371 1203.79 378.146C1203.79 370.582 1210.02 366 1215.16 366Z" fill="#FCFCED"/>
<path d="M1260.95 339C1269.78 340.152 1271.7 350.135 1271.7 357.047V357.047C1271.7 357.828 1272.97 358.285 1273.52 357.732C1276.43 354.812 1280.08 354.082 1283.61 354.743C1287.98 355.416 1290.59 359.928 1291.16 365.688C1291.26 366.647 1292.04 367.415 1293 367.415V367.415C1293.77 367.415 1294.45 366.914 1294.74 366.2C1298.03 357.968 1305.35 355.991 1309.72 356.663V356.663C1317.31 358.416 1322.85 367.415 1330.64 367.415H1330.84V367.415C1331.16 367.415 1331.48 367.419 1331.8 367.416C1334.72 367.394 1336.11 369.304 1336.66 371.676C1337.55 375.542 1334.62 378.852 1330.66 379.062C1327.44 379.233 1322.85 379.059 1316.56 378.166H1236.38C1233.41 378.166 1231 375.76 1231 372.791C1231 369.822 1233.41 367.415 1236.38 367.415V367.415C1240.97 367.415 1244.22 362.643 1244.07 358.05C1244.06 357.718 1244.06 357.383 1244.06 357.047C1244.06 345.808 1253.32 339 1260.95 339Z" fill="#FCFCED"/>
<path d="M270.156 113C276.099 113.775 277.392 120.494 277.392 125.146V125.146C277.392 125.671 278.243 125.979 278.614 125.607C280.571 123.641 283.028 123.15 285.401 123.595C288.347 124.048 290.1 127.084 290.487 130.96C290.552 131.605 291.077 132.122 291.726 132.122V132.122C292.244 132.122 292.699 131.785 292.891 131.304C295.112 125.765 300.033 124.434 302.974 124.887V124.887C308.085 126.066 311.81 132.122 317.056 132.122H317.186V132.122C317.4 132.122 317.617 132.125 317.831 132.123C318.949 132.114 319.735 132.525 320.272 133.174C322.801 136.23 319.018 140.046 315.052 139.998C313.103 139.974 310.639 139.792 307.579 139.357H253.618C251.62 139.357 250 137.738 250 135.74C250 133.742 251.62 132.122 253.618 132.122V132.122C256.711 132.122 258.899 128.91 258.797 125.819C258.79 125.596 258.786 125.371 258.786 125.146C258.786 117.582 265.019 113 270.156 113Z" fill="#FCFCED"/>
<path d="M556.95 579C565.782 580.152 567.702 590.135 567.702 597.047V597.047C567.702 597.828 568.968 598.285 569.52 597.732C572.427 594.812 576.08 594.082 579.605 594.743C583.982 595.416 586.587 599.928 587.162 605.688C587.258 606.647 588.039 607.415 589.003 607.415V607.415C589.773 607.415 590.449 606.914 590.735 606.2C594.035 597.968 601.347 595.991 605.717 596.663V596.663C613.312 598.416 618.848 607.415 626.642 607.415H626.836V607.415C627.156 607.415 627.478 607.419 627.799 607.416C630.72 607.394 632.114 609.304 632.658 611.676C633.546 615.542 630.619 618.852 626.658 619.062C623.442 619.233 618.848 619.059 612.564 618.166H532.376C529.407 618.166 527 615.76 527 612.791C527 609.822 529.407 607.415 532.376 607.415V607.415C536.972 607.415 540.224 602.643 540.072 598.05C540.061 597.718 540.056 597.383 540.056 597.047C540.056 585.808 549.316 579 556.95 579Z" fill="#FCFCED"/>
<defs>
<linearGradient id="paint0_linear_31877_36250" x1="960" y1="0" x2="960" y2="2827" gradientUnits="userSpaceOnUse">
<stop stop-color="#BBDDFF"/>
<stop offset="0.274038" stop-color="#F7FBFF"/>
<stop offset="1" stop-color="white"/>
</linearGradient>
</defs>
</svg>
