<svg width="24" height="24" viewBox="0 0 24 24" fill="currentColor" xmlns="http://www.w3.org/2000/svg">
<path d="M16.2431 14.8327L16.3122 14.9087C16.6324 15.3014 16.6092 15.8809 16.2431 16.2469C15.8771 16.613 15.2977 16.6362 14.9049 16.316L14.8289 16.2469L7.75787 9.17586C7.36734 8.78533 7.36734 8.15217 7.75787 7.76164C8.14839 7.37112 8.78156 7.37112 9.17208 7.76164L16.2431 14.8327Z" fill="currentColor"/>
<path d="M9.17208 16.2469L9.09612 16.316C8.70335 16.6362 8.12392 16.613 7.75787 16.2469C7.39182 15.8809 7.36864 15.3014 7.68882 14.9087L7.75787 14.8327L14.8289 7.76164C15.2195 7.37112 15.8526 7.37112 16.2431 7.76164C16.6337 8.15217 16.6337 8.78533 16.2431 9.17586L9.17208 16.2469Z" fill="currentColor"/>
</svg>
